<?xml version="1.0" encoding="UTF-8"?><svg xmlns="http://www.w3.org/2000/svg" xmlns:xlink="http://www.w3.org/1999/xlink" viewBox="0 0 406.62 69.44"><defs><style>.f{fill:#09101e;}.g{fill:url(#d);}.h{fill:url(#e);}</style><linearGradient id="d" x1="40.07" y1="67.12" x2="49.33" y2="40.87" gradientTransform="matrix(1, 0, 0, 1, 0, 0)" gradientUnits="userSpaceOnUse"><stop offset="0" stop-color="#019be0"/><stop offset=".2" stop-color="#0296dc"/><stop offset=".39" stop-color="#078ad2"/><stop offset=".59" stop-color="#1076c1"/><stop offset=".79" stop-color="#1c5aa9"/><stop offset=".98" stop-color="#2c368b"/><stop offset="1" stop-color="#2e3388"/></linearGradient><radialGradient id="e" cx="36.29" cy="22.47" fx="36.29" fy="22.47" r="35.36" gradientTransform="matrix(1, 0, 0, 1, 0, 0)" gradientUnits="userSpaceOnUse"><stop offset="0" stop-color="#92c01f"/><stop offset=".21" stop-color="#8ebe1f"/><stop offset=".37" stop-color="#84bb21"/><stop offset=".52" stop-color="#74b524"/><stop offset=".66" stop-color="#5cad27"/><stop offset=".79" stop-color="#3ea22d"/><stop offset=".92" stop-color="#199533"/><stop offset=".95" stop-color="#109235"/></radialGradient></defs><g id="a"/><g id="b"><g id="c"><g><g><polygon class="g" points="44.48 69.44 67.04 45.95 32.91 32.1 44.48 69.44"/><polygon class="h" points="0 18.75 67.04 45.95 67.04 13.68 33.43 0 0 18.75"/></g><g><path class="f" d="M112.85,13.57V46.21h-4.64v-14.55h-18.66v14.55h-4.64V13.57h4.64v14.04h18.66V13.57h4.64Z"/><path class="f" d="M127.53,44.42c-2.63-1.45-4.69-3.44-6.2-5.99-1.5-2.55-2.25-5.39-2.25-8.53s.75-5.98,2.25-8.53c1.5-2.55,3.57-4.55,6.2-5.99,2.63-1.45,5.58-2.17,8.86-2.17s6.19,.72,8.82,2.17c2.63,1.45,4.69,3.44,6.17,5.97,1.48,2.53,2.23,5.39,2.23,8.56s-.74,6.02-2.23,8.56c-1.49,2.53-3.54,4.52-6.17,5.97-2.63,1.45-5.57,2.17-8.82,2.17s-6.23-.72-8.86-2.17Zm15.29-3.61c1.9-1.09,3.4-2.59,4.5-4.5,1.1-1.91,1.65-4.05,1.65-6.41s-.55-4.5-1.65-6.41c-1.1-1.91-2.6-3.41-4.5-4.5-1.9-1.09-4.05-1.63-6.43-1.63s-4.54,.54-6.47,1.63c-1.93,1.09-3.45,2.59-4.55,4.5-1.1,1.91-1.65,4.05-1.65,6.41s.55,4.5,1.65,6.41c1.1,1.91,2.61,3.41,4.55,4.5,1.93,1.09,4.09,1.63,6.47,1.63s4.52-.54,6.43-1.63Z"/><path class="f" d="M162.13,45.44c-2.27-.76-4.06-1.75-5.36-2.96l1.72-3.64c1.24,1.12,2.82,2.03,4.76,2.73,1.93,.7,3.92,1.05,5.96,1.05,2.69,0,4.7-.46,6.03-1.38,1.33-.92,2-2.14,2-3.66,0-1.12-.36-2.03-1.09-2.73-.73-.7-1.62-1.24-2.69-1.61s-2.58-.79-4.52-1.26c-2.44-.59-4.42-1.18-5.92-1.77-1.5-.59-2.78-1.5-3.85-2.73-1.07-1.23-1.6-2.88-1.6-4.97,0-1.74,.46-3.31,1.37-4.71,.91-1.4,2.3-2.52,4.15-3.36,1.86-.84,4.16-1.26,6.92-1.26,1.92,0,3.81,.25,5.66,.75,1.86,.5,3.45,1.21,4.78,2.15l-1.53,3.73c-1.36-.87-2.82-1.53-4.36-1.98-1.55-.45-3.06-.68-4.55-.68-2.63,0-4.6,.48-5.92,1.45-1.31,.96-1.97,2.21-1.97,3.73,0,1.12,.37,2.03,1.11,2.73,.74,.7,1.66,1.24,2.76,1.63,1.1,.39,2.59,.8,4.48,1.24,2.44,.59,4.41,1.18,5.89,1.77s2.76,1.49,3.83,2.7c1.07,1.21,1.6,2.84,1.6,4.9,0,1.71-.46,3.27-1.39,4.69s-2.34,2.53-4.22,3.36c-1.89,.82-4.21,1.24-6.96,1.24-2.44,0-4.8-.38-7.08-1.14Z"/><path class="f" d="M194.99,17.63h-11.14v-4.06h26.87v4.06h-11.14v28.58h-4.59V17.63Z"/><path class="f" d="M237.32,39.22h-15.08l-2.88,6.99h-7.7l14.48-32.64h7.43l14.53,32.64h-7.89l-2.88-6.99Zm-2.37-5.74l-5.15-12.5-5.15,12.5h10.3Z"/><path class="f" d="M260.92,19.63v8.63h15.04v6.06h-15.04v11.89h-7.52V13.57h24.55v6.06h-17.03Z"/><path class="f" d="M305.6,46.21l-6.27-9.09h-6.92v9.09h-7.52V13.57h14.06c2.88,0,5.38,.48,7.5,1.45,2.12,.96,3.75,2.33,4.9,4.1,1.14,1.77,1.72,3.87,1.72,6.3s-.58,4.52-1.74,6.27c-1.16,1.76-2.81,3.1-4.94,4.03l7.29,10.49h-8.08Zm-1.9-25.02c-1.18-.98-2.89-1.47-5.15-1.47h-6.13v11.38h6.13c2.26,0,3.98-.5,5.15-1.49,1.18-.99,1.76-2.39,1.76-4.2s-.59-3.24-1.76-4.22Z"/><path class="f" d="M321.01,13.57h7.52V46.21h-7.52V13.57Z"/><path class="f" d="M344.73,44.61c-2.68-1.45-4.78-3.45-6.31-6.02s-2.3-5.46-2.3-8.7,.77-6.13,2.3-8.7,3.63-4.57,6.31-6.02c2.68-1.45,5.69-2.17,9.03-2.17,2.82,0,5.36,.5,7.63,1.49,2.27,1,4.18,2.42,5.73,4.29l-4.83,4.48c-2.2-2.55-4.92-3.82-8.17-3.82-2.01,0-3.8,.44-5.38,1.33-1.58,.89-2.81,2.12-3.69,3.71-.88,1.58-1.32,3.39-1.32,5.41s.44,3.82,1.32,5.41c.88,1.58,2.11,2.82,3.69,3.71,1.58,.89,3.37,1.33,5.38,1.33,3.25,0,5.97-1.29,8.17-3.87l4.83,4.48c-1.55,1.9-3.47,3.34-5.75,4.34-2.29,.99-4.84,1.49-7.66,1.49-3.31,0-6.3-.72-8.98-2.17Z"/><path class="f" d="M395.85,39.22h-15.08l-2.88,6.99h-7.7l14.48-32.64h7.42l14.53,32.64h-7.89l-2.88-6.99Zm-2.37-5.74l-5.15-12.5-5.15,12.5h10.3Z"/></g><g><path class="f" d="M340.56,66.53v-11.26h2.04v4.98h.03l4.97-4.98h2.49l-5.48,5.42,5.75,5.85h-2.52l-5.21-5.21h-.03v5.21h-2.04Z"/><path class="f" d="M354.8,66.53v-11.26h7.49v1.63h-5.53v3.1h5.18v1.63h-5.18v3.27h5.53v1.63h-7.49Z"/><path class="f" d="M367.68,66.53v-11.26h1.53l6.05,7.86v-7.86h1.9v11.26h-1.52l-6.07-7.89v7.89h-1.9Z"/><path class="f" d="M385.93,66.53v-5.18l-4.33-6.09h2.38l3,4.27,3.02-4.27h2.28l-4.31,6.1v5.16h-2.04Z"/><path class="f" d="M393.96,66.53l5.1-11.26h1.68l5.1,11.26h-2.08l-1.12-2.6h-5.5l-1.1,2.6h-2.08Zm5.91-9.04l-2.03,4.81h4.09l-2.03-4.81h-.03Z"/></g></g></g></g></svg>